<svg version="1.1" viewBox="0.0 0.0 192.1496062992126 192.0" fill="none" stroke="none" stroke-linecap="square" stroke-miterlimit="10" xmlns:xlink="http://www.w3.org/1999/xlink" xmlns="http://www.w3.org/2000/svg"><clipPath id="p.0"><path d="m0 0l192.14961 0l0 192.0l-192.14961 0l0 -192.0z" clip-rule="nonzero"/></clipPath><g clip-path="url(#p.0)"><path fill="#000000" fill-opacity="0.0" d="m0 0l192.14961 0l0 192.0l-192.14961 0z" fill-rule="evenodd"/><path fill="#ffffff" d="m47.984314 59.666668l96.72441 0l0 96.72441l-96.72441 0z" fill-rule="evenodd"/><path stroke="#3d85c6" stroke-width="4.0" stroke-linejoin="round" stroke-linecap="butt" d="m47.984314 59.666668l96.72441 0l0 96.72441l-96.72441 0z" fill-rule="evenodd"/><path fill="#000000" fill-opacity="0.0" d="m23.574802 84.01312l12.031498 0l0 0.06299591l12.031494 0" fill-rule="evenodd"/><path stroke="#3d85c6" stroke-width="4.0" stroke-linejoin="round" stroke-linecap="butt" d="m34.774803 84.01312l0.8314972 0l0 0.06299591l12.031494 0" fill-rule="evenodd"/><path stroke="#3d85c6" stroke-width="4.0" stroke-linecap="butt" d="m25.574802 84.01312c0 -2.540512 2.0594902 -4.5999985 4.6000004 -4.5999985c2.5405102 0 4.6000004 2.0594864 4.6000004 4.5999985c0 2.540512 -2.0594902 4.5999985 -4.6000004 4.5999985c-2.5405102 0 -4.6000004 -2.0594864 -4.6000004 -4.5999985z" fill-rule="nonzero"/><path fill="#000000" fill-opacity="0.0" d="m24.076115 108.249344l11.6063 0l0 0.06298828l11.6063 0" fill-rule="evenodd"/><path stroke="#3d85c6" stroke-width="4.0" stroke-linejoin="round" stroke-linecap="butt" d="m35.276115 108.249344l0.4062996 0l0 0.06298828l11.6063 0" fill-rule="evenodd"/><path stroke="#3d85c6" stroke-width="4.0" stroke-linecap="butt" d="m26.076115 108.249344c0 -2.540512 2.0594902 -4.5999985 4.6000004 -4.5999985c2.5405102 0 4.6000004 2.0594864 4.6000004 4.5999985c0 2.540512 -2.0594902 4.5999985 -4.6000004 4.5999985c-2.5405102 0 -4.6000004 -2.0594864 -4.6000004 -4.5999985z" fill-rule="nonzero"/><path fill="#000000" fill-opacity="0.0" d="m24.574802 132.35957l11.354332 0l0 0.06300354l11.354332 0" fill-rule="evenodd"/><path stroke="#3d85c6" stroke-width="4.0" stroke-linejoin="round" stroke-linecap="butt" d="m35.774803 132.35957l0.1543312 0l0 0.06300354l11.354332 0" fill-rule="evenodd"/><path stroke="#3d85c6" stroke-width="4.0" stroke-linecap="butt" d="m26.574802 132.35957c0 -2.5404968 2.0594902 -4.599991 4.6000004 -4.599991c2.5405102 0 4.6000004 2.059494 4.6000004 4.599991c0 2.540512 -2.0594902 4.600006 -4.6000004 4.600006c-2.5405102 0 -4.6000004 -2.059494 -4.6000004 -4.600006z" fill-rule="nonzero"/><path fill="#000000" fill-opacity="0.0" d="m168.5748 35.349083l0 48.501495l-24.062988 0l0 -0.060554504" fill-rule="evenodd"/><path stroke="#3d85c6" stroke-width="4.0" stroke-linejoin="round" stroke-linecap="butt" d="m168.5748 46.54908l0 37.3015l-24.062988 0l0 -0.060554504" fill-rule="evenodd"/><path stroke="#3d85c6" stroke-width="4.0" stroke-linecap="butt" d="m168.5748 37.349083c2.540512 0 4.600006 2.0594902 4.600006 4.5999985c0 2.5405083 -2.059494 4.5999985 -4.600006 4.5999985c-2.540512 0 -4.599991 -2.0594902 -4.599991 -4.5999985c0 -2.5405083 2.0594788 -4.5999985 4.599991 -4.5999985z" fill-rule="nonzero"/><path fill="#000000" fill-opacity="0.0" d="m168.5748 108.249344l-11.858261 0l0 0.06298828l-11.858276 0" fill-rule="evenodd"/><path stroke="#3d85c6" stroke-width="4.0" stroke-linejoin="round" stroke-linecap="butt" d="m157.3748 108.249344l-0.65826416 0l0 0.06298828l-11.858276 0" fill-rule="evenodd"/><path stroke="#3d85c6" stroke-width="4.0" stroke-linecap="butt" d="m166.5748 108.249344c0 2.540512 -2.0594788 4.5999985 -4.599991 4.5999985c-2.540512 0 -4.600006 -2.0594864 -4.600006 -4.5999985c0 -2.540512 2.059494 -4.5999985 4.600006 -4.5999985c2.540512 0 4.599991 2.0594864 4.599991 4.5999985z" fill-rule="nonzero"/><path fill="#000000" fill-opacity="0.0" d="m168.5748 180.85039l0 -48.501358l-23.716537 0l0 -0.06556702" fill-rule="evenodd"/><path stroke="#3d85c6" stroke-width="4.0" stroke-linejoin="round" stroke-linecap="butt" d="m168.5748 169.65039l0 -37.30136l-23.716537 0l0 -0.06556702" fill-rule="evenodd"/><path stroke="#3d85c6" stroke-width="4.0" stroke-linecap="butt" d="m168.5748 178.85039c-2.540512 0 -4.599991 -2.0594788 -4.599991 -4.599991c0 -2.540512 2.0594788 -4.600006 4.599991 -4.600006c2.540512 0 4.600006 2.059494 4.600006 4.600006c0 2.540512 -2.059494 4.599991 -4.600006 4.599991z" fill-rule="nonzero"/><path fill="#000000" fill-opacity="0.0" d="m24.076115 35.349083l47.99988 0l0 24.157478l-0.18885803 0" fill-rule="evenodd"/><path stroke="#3d85c6" stroke-width="4.0" stroke-linejoin="round" stroke-linecap="butt" d="m35.276115 35.349083l36.799873 0l0 24.157478l-0.1888504 0" fill-rule="evenodd"/><path stroke="#3d85c6" stroke-width="4.0" stroke-linecap="butt" d="m26.076115 35.349083c0 -2.540512 2.0594902 -4.6000023 4.6000004 -4.6000023c2.5405102 0 4.6000004 2.0594902 4.6000004 4.6000023c0 2.5405083 -2.0594902 4.5999985 -4.6000004 4.5999985c-2.5405102 0 -4.6000004 -2.0594902 -4.6000004 -4.5999985z" fill-rule="nonzero"/><path fill="#000000" fill-opacity="0.0" d="m47.779526 11.149607l0 0.19944668l48.409454 0l0 48.210003" fill-rule="evenodd"/><path stroke="#3d85c6" stroke-width="4.0" stroke-linejoin="round" stroke-linecap="butt" d="m58.977753 11.349053l37.211227 0l0 48.210003" fill-rule="evenodd"/><path stroke="#3d85c6" stroke-width="4.0" stroke-linecap="butt" d="m49.77921 11.185222c0.04524231 -2.5401068 2.141079 -4.5625954 4.6811867 -4.517355c2.5401077 0.04524088 4.5625954 2.14108 4.517357 4.6811867c-0.04524231 2.5401068 -2.141079 4.5625954 -4.6811867 4.517355c-2.5401077 -0.045241356 -4.5625954 -2.14108 -4.517357 -4.6811867z" fill-rule="nonzero"/><path fill="#000000" fill-opacity="0.0" d="m120.35433 35.349083l0 11.921257l0.06298828 0l0 11.921261" fill-rule="evenodd"/><path stroke="#3d85c6" stroke-width="4.0" stroke-linejoin="round" stroke-linecap="butt" d="m120.35433 46.54908l0 0.7212601l0.06298828 0l0 11.921261" fill-rule="evenodd"/><path stroke="#3d85c6" stroke-width="4.0" stroke-linecap="butt" d="m120.35433 37.349083c2.540512 0 4.5999985 2.0594902 4.5999985 4.5999985c0 2.5405083 -2.0594864 4.5999985 -4.5999985 4.5999985c-2.540512 0 -4.5999985 -2.0594902 -4.5999985 -4.5999985c0 -2.5405083 2.0594864 -4.5999985 4.5999985 -4.5999985z" fill-rule="nonzero"/><path fill="#000000" fill-opacity="0.0" d="m120.28346 180.34908l0 -12.141724l0.06299591 0l0 -12.141739" fill-rule="evenodd"/><path stroke="#3d85c6" stroke-width="4.0" stroke-linejoin="round" stroke-linecap="butt" d="m120.28346 169.14908l0 -0.9417267l0.06299591 0l0 -12.141739" fill-rule="evenodd"/><path stroke="#3d85c6" stroke-width="4.0" stroke-linecap="butt" d="m120.28346 178.34908c-2.5405045 0 -4.5999985 -2.0594788 -4.5999985 -4.599991c0 -2.540512 2.059494 -4.600006 4.5999985 -4.600006c2.540512 0 4.5999985 2.059494 4.5999985 4.600006c0 2.540512 -2.0594864 4.599991 -4.5999985 4.599991z" fill-rule="nonzero"/><path fill="#000000" fill-opacity="0.0" d="m96.07612 180.34908l0 -11.984253l0.06298828 0l0 -11.984238" fill-rule="evenodd"/><path stroke="#3d85c6" stroke-width="4.0" stroke-linejoin="round" stroke-linecap="butt" d="m96.07612 169.14908l0 -0.784256l0.06298828 0l0 -11.984238" fill-rule="evenodd"/><path stroke="#3d85c6" stroke-width="4.0" stroke-linecap="butt" d="m96.07612 178.34908c-2.540512 0 -4.600006 -2.0594788 -4.600006 -4.599991c0 -2.540512 2.059494 -4.600006 4.600006 -4.600006c2.5405045 0 4.5999985 2.059494 4.5999985 4.600006c0 2.540512 -2.059494 4.599991 -4.5999985 4.599991z" fill-rule="nonzero"/><path fill="#000000" fill-opacity="0.0" d="m23.574802 180.34908l48.501225 0l0 -23.936996l-0.21775818 0" fill-rule="evenodd"/><path stroke="#3d85c6" stroke-width="4.0" stroke-linejoin="round" stroke-linecap="butt" d="m34.774803 180.34908l37.301224 0l0 -23.936996l-0.21775818 0" fill-rule="evenodd"/><path stroke="#3d85c6" stroke-width="4.0" stroke-linecap="butt" d="m25.574802 180.34908c0 -2.5404968 2.0594902 -4.599991 4.6000004 -4.599991c2.5405102 0 4.6000004 2.059494 4.6000004 4.599991c0 2.540512 -2.0594902 4.600006 -4.6000004 4.600006c-2.5405102 0 -4.6000004 -2.059494 -4.6000004 -4.600006z" fill-rule="nonzero"/><path fill="#000000" fill-opacity="0.0" d="m70.89622 63.353233l87.59055 0l0 88.472435l-87.59055 0z" fill-rule="evenodd"/><path fill="#000000" d="m86.14622 115.0126l-0.15625 -19.453125l6.25 0.234375l-0.703125 45.78125l41.171883 1.171875q1.25 0.390625 1.25 1.328125q0 0.9375 -1.171875 1.953125q-2.265625 2.03125 -5.1562576 2.03125q-0.703125 0 -1.484375 -0.15625l-41.953125 -0.390625q1.953125 -7.265625 1.953125 -32.5z" fill-rule="nonzero"/><path fill="#000000" fill-opacity="0.0" d="m52.577427 31.351706l62.488194 0l0 88.47244l-62.488194 0z" fill-rule="evenodd"/><path fill="#000000" d="m69.780556 69.18295q5.78125 -2.03125 15.3125 -2.03125q17.421875 0 23.828125 8.59375q2.5 3.28125 2.5 8.359375q0.078125 0.703125 0.078125 1.40625q0 7.8125 -9.140625 15.859375q-8.359375 7.578125 -20.625 12.1875q-8.125 3.125 -13.4375 3.125q-2.1875 0 -3.75 -0.625l0 -48.75l1.09375 0q1.796875 0 2.890625 0.59375q1.09375 0.578125 1.25 1.28125zm36.40625 15.546875q-0.703125 -6.953125 -7.734375 -10.3125q-5.234375 -2.5 -13.125 -2.5l-1.40625 0.078125q-7.421875 0.15625 -12.8125 2.34375l0 37.265625q5.46875 0 13.671875 -3.984375q14.21875 -7.03125 19.53125 -16.328125q1.875 -3.28125 1.875 -6.5625z" fill-rule="nonzero"/></g></svg>