<?xml version="1.0" standalone="no"?>
<!DOCTYPE svg PUBLIC "-//W3C//DTD SVG 20010904//EN"
 "http://www.w3.org/TR/2001/REC-SVG-20010904/DTD/svg10.dtd">
<svg version="1.0" xmlns="http://www.w3.org/2000/svg"
 width="192.000000pt" height="192.000000pt" viewBox="0 0 192.000000 192.000000"
 preserveAspectRatio="xMidYMid meet">
<metadata>
Created by potrace 1.11, written by Peter Selinger 2001-2013
</metadata>
<g transform="translate(0.000000,192.000000) scale(0.100000,-0.100000)"
fill="#000000" stroke="none">
<path d="M513 1858 c-30 -15 -48 -60 -34 -87 23 -43 77 -53 106 -21 17 18 31
20 187 20 l168 0 0 -215 0 -215 -95 0 -95 0 0 108 c0 71 -4 112 -12 120 -8 8
-64 12 -186 12 -172 0 -175 0 -204 25 -34 29 -62 26 -90 -7 -36 -41 -7 -108
46 -108 13 0 35 9 49 20 23 18 40 20 186 20 l161 0 0 -95 0 -95 -113 0 c-75 0
-117 -4 -125 -12 -8 -8 -12 -49 -12 -120 l0 -108 -45 0 c-25 0 -45 4 -45 10 0
5 -11 17 -25 26 -52 34 -123 -33 -97 -92 22 -47 101 -53 118 -9 4 10 20 15 50
15 l44 0 0 -95 0 -95 -39 0 c-22 0 -43 5 -46 11 -14 21 -58 30 -87 18 -48 -20
-49 -84 -2 -115 20 -14 29 -14 53 -4 16 6 32 18 35 26 3 9 20 14 46 14 l40 0
0 -95 0 -95 -35 0 c-20 0 -48 9 -64 21 -33 24 -73 18 -96 -14 -20 -28 -19 -50
3 -75 29 -35 67 -38 97 -8 18 18 37 26 60 26 l35 0 0 -108 c0 -71 4 -112 12
-120 8 -8 50 -12 125 -12 l113 0 0 -95 0 -95 -170 0 c-104 0 -170 4 -170 10 0
5 -11 17 -25 26 -55 36 -127 -36 -91 -91 24 -36 61 -42 96 -16 27 20 41 21
208 21 125 0 182 4 190 12 8 8 12 49 12 120 l0 108 95 0 95 0 0 -40 c0 -28 -7
-46 -25 -64 -29 -29 -31 -52 -10 -83 33 -47 105 -33 119 23 5 20 2 35 -13 55
-13 18 -21 43 -21 69 l0 40 95 0 95 0 0 -40 c0 -28 -7 -46 -25 -64 -29 -29
-31 -52 -10 -83 33 -47 105 -33 119 23 5 20 2 35 -13 55 -13 18 -21 43 -21 69
l0 40 108 0 c71 0 112 4 120 12 8 8 12 49 12 120 l0 108 95 0 95 0 0 -165 c0
-133 -3 -167 -14 -171 -23 -9 -39 -59 -27 -83 25 -46 79 -54 116 -16 31 30 31
46 0 83 -25 29 -25 33 -25 204 0 122 -4 178 -12 186 -8 8 -49 12 -120 12
l-108 0 0 95 0 95 45 0 c25 0 45 -4 45 -10 0 -5 11 -17 25 -26 50 -33 117 24
95 81 -13 34 -55 50 -92 34 -15 -6 -28 -15 -28 -20 0 -5 -20 -9 -45 -9 l-45 0
0 95 0 95 108 0 c71 0 112 4 120 12 8 8 12 65 12 190 0 138 3 179 14 185 25
15 37 50 26 78 -18 48 -95 55 -125 12 -21 -31 -19 -54 10 -83 25 -24 25 -28
25 -184 l0 -160 -95 0 -95 0 0 108 c0 71 -4 112 -12 120 -8 8 -49 12 -120 12
l-108 0 0 42 c0 23 6 49 14 57 29 33 30 68 1 96 -30 31 -68 28 -97 -7 -25 -28
-22 -55 7 -84 18 -18 25 -36 25 -64 l0 -40 -95 0 -95 0 0 228 c0 164 -3 231
-12 240 -8 8 -65 12 -190 12 -176 0 -177 0 -202 25 -27 27 -39 29 -73 13z m47
-58 c0 -13 -7 -20 -20 -20 -19 0 -27 20 -13 33 13 14 33 6 33 -13z m-232 -243
c2 -12 -3 -17 -17 -17 -15 0 -21 6 -21 21 0 25 33 22 38 -4z m892 -68 c0 -25
-33 -22 -38 4 -2 12 3 17 17 17 15 0 21 -6 21 -21z m485 1 c0 -22 -39 -19 -43
3 -3 15 1 18 20 15 12 -2 23 -10 23 -18z m-285 -655 l0 -455 -460 0 -460 0 0
455 0 455 460 0 460 0 0 -455z m-1100 240 c0 -25 -23 -35 -35 -15 -10 16 2 40
20 40 9 0 15 -9 15 -25z m5 -245 c0 -8 -8 -16 -17 -18 -13 -2 -18 3 -18 18 0
15 5 20 18 18 9 -2 17 -10 17 -18z m1310 0 c0 -8 -8 -16 -17 -18 -13 -2 -18 3
-18 18 0 15 5 20 18 18 9 -2 17 -10 17 -18z m-1305 -241 c0 -14 -5 -19 -17
-17 -26 5 -29 38 -4 38 15 0 21 -6 21 -21z m650 -410 c0 -25 -33 -22 -38 4 -2
12 3 17 17 17 15 0 21 -6 21 -21z m240 0 c0 -25 -33 -22 -38 4 -2 12 3 17 17
17 15 0 21 -6 21 -21z m488 -2 c3 -12 -3 -17 -22 -17 -25 0 -35 18 -19 34 12
12 38 2 41 -17z m-1388 -57 c0 -13 -7 -20 -20 -20 -19 0 -27 20 -13 33 13 14
33 6 33 -13z"/>
<path d="M770 1240 c-30 -4 -72 -5 -92 -3 l-38 6 0 -246 c0 -243 0 -245 22
-250 24 -7 105 9 154 29 18 8 36 14 40 14 6 0 -2 -217 -12 -301 l-5 -46 221
-7 c231 -7 271 -2 278 35 4 22 -54 29 -254 29 l-164 0 0 163 c0 161 0 164 23
174 41 19 140 117 158 158 47 102 -4 198 -121 233 -51 16 -147 21 -210 12z
m217 -80 c56 -31 79 -77 62 -127 -12 -37 -78 -116 -112 -134 -17 -9 -18 -7
-15 23 3 32 2 33 -36 36 l-39 3 5 -57 5 -57 -41 -17 c-23 -10 -56 -21 -73 -25
l-33 -7 0 185 0 185 38 11 c20 5 73 9 117 7 63 -2 90 -7 122 -26z"/>
</g>
</svg>
